<svg width="2401" height="561" viewBox="0 0 2401 561" fill="none" xmlns="http://www.w3.org/2000/svg">
<path d="M30.9956 20.5061H204.194C207.176 20.5061 209.92 20.2079 212.425 19.6114C214.93 18.8958 217.017 18.2397 218.687 17.6433C220.476 16.9276 221.61 16.5697 222.087 16.5697C222.445 16.5697 222.743 16.8083 222.981 17.2854C223.339 17.6433 223.637 18.8361 223.876 20.8639L234.969 101.022C235.208 102.096 235.208 102.871 234.969 103.348C234.85 103.706 234.611 104.004 234.254 104.243C233.896 104.362 233.478 104.362 233.001 104.243C232.524 104.004 232.106 103.527 231.749 102.811C221.252 80.6246 211.769 63.9847 203.3 52.8914C194.95 41.6788 187.375 34.2236 180.576 30.5258C173.896 26.7088 167.932 24.8003 162.684 24.8003H155.885V260.622C155.885 262.054 156.6 263.187 158.032 264.022C159.463 264.857 161.491 265.513 164.115 265.99L174.135 267.779C176.044 268.137 176.998 268.734 176.998 269.569C176.998 270.523 176.282 271 174.851 271H60.3392C59.6235 271 59.0867 270.881 58.7289 270.642C58.371 270.284 58.1921 269.926 58.1921 269.569C58.1921 268.734 59.1463 268.137 61.0549 267.779L71.0746 265.99C73.8181 265.513 75.8459 264.857 77.1581 264.022C78.5894 263.187 79.3051 262.054 79.3051 260.622V24.8003H72.506C67.854 24.8003 62.2477 26.9473 55.6871 31.2415C49.1266 35.4164 41.4925 43.1102 32.7848 54.3227C24.1965 65.5353 14.4153 81.6982 3.44127 102.811C3.08342 103.527 2.66593 104.004 2.1888 104.243C1.71167 104.362 1.29418 104.362 0.936333 104.243C0.578485 104.004 0.339919 103.706 0.220636 103.348C0.101353 102.871 0.101353 102.096 0.220636 101.022L11.3139 20.8639C11.5525 18.8361 11.7911 17.6433 12.0296 17.2854C12.3875 16.8083 12.7453 16.5697 13.1032 16.5697C13.5803 16.5697 14.6539 16.9276 16.3238 17.6433C17.9938 18.2397 20.0812 18.8958 22.5862 19.6114C25.2104 20.2079 28.0135 20.5061 30.9956 20.5061ZM320.791 3.32935V259.549C320.791 261.457 321.09 263.008 321.686 264.201C322.402 265.274 323.535 265.99 325.086 266.348L331.885 267.958C333.316 268.316 334.032 268.853 334.032 269.569C334.032 270.523 333.435 271 332.243 271H244.57C244.092 271 243.675 270.881 243.317 270.642C242.959 270.404 242.78 270.046 242.78 269.569C242.78 269.211 242.9 268.913 243.138 268.674C243.496 268.316 244.092 268.078 244.927 267.958L251.727 266.348C253.397 265.99 254.53 265.274 255.126 264.201C255.723 263.008 256.021 261.457 256.021 259.549V26.5895C256.021 25.6352 255.782 24.9195 255.305 24.4424C254.828 23.9653 254.053 23.7267 252.979 23.7267H246.001C245.166 23.7267 244.57 23.6074 244.212 23.3689C243.973 23.011 243.854 22.5935 243.854 22.1164C243.854 21.6393 244.033 21.2814 244.391 21.0428C244.749 20.8043 245.166 20.6254 245.643 20.5061L313.455 1.71902C314.887 1.36118 315.841 1.12262 316.318 1.00333C316.915 0.884045 317.571 0.824401 318.286 0.824401C319.121 0.824401 319.718 1.06297 320.076 1.54011C320.553 2.01723 320.791 2.61365 320.791 3.32935ZM315.424 149.51L312.919 146.827L320.076 140.564C332.6 129.59 343.813 121.3 353.713 115.694C363.614 109.968 372.441 107.105 380.194 107.105C390.81 107.105 399.041 110.147 404.886 116.231C410.85 122.195 414.548 131.916 415.979 145.395L428.146 259.549C428.384 261.457 428.742 263.008 429.219 264.201C429.816 265.274 430.889 265.99 432.44 266.348L439.239 267.958C440.074 268.078 440.611 268.316 440.85 268.674C441.207 268.913 441.386 269.211 441.386 269.569C441.386 270.046 441.207 270.404 440.85 270.642C440.611 270.881 440.193 271 439.597 271H350.314C349.121 271 348.525 270.523 348.525 269.569C348.525 268.853 349.24 268.316 350.672 267.958L357.471 266.348C359.141 265.99 360.334 265.274 361.049 264.201C361.765 263.008 362.004 261.457 361.765 259.549L352.282 152.194C351.805 146.349 350.612 142.115 348.704 139.491C346.795 136.747 343.694 135.375 339.399 135.375C336.417 135.375 333.495 136.151 330.632 137.701C327.889 139.133 325.086 141.101 322.223 143.606L315.424 149.51ZM604.411 182.254C604.411 183.446 603.994 184.46 603.159 185.295C602.443 186.13 601.191 186.548 599.402 186.548H487.395V182.254H537.136C539.283 182.254 540.357 180.941 540.357 178.317C540.357 154.341 538.15 137.165 533.736 126.787C529.442 116.29 524.969 111.042 520.317 111.042C517.096 111.042 514.114 112.771 511.371 116.231C508.627 119.57 506.361 125.415 504.572 133.765C502.902 142.115 502.067 153.626 502.067 168.297C502.067 192.989 507.017 211.001 516.917 222.333C526.818 233.545 539.999 239.151 556.46 239.151C569.7 239.151 580.436 235.871 588.666 229.311C597.016 222.631 601.191 213.744 601.191 202.651C601.191 202.055 601.31 201.697 601.549 201.577C601.906 201.339 602.145 201.22 602.264 201.22C602.622 201.22 602.92 201.339 603.159 201.577C603.517 201.816 603.696 202.293 603.696 203.009C603.696 216.607 600.237 228.834 593.318 239.688C586.519 250.424 577.215 258.952 565.406 265.274C553.597 271.477 540.237 274.578 525.327 274.578C509.104 274.578 494.731 271.119 482.206 264.201C469.681 257.282 459.841 247.68 452.684 235.394C445.527 223.108 441.948 208.973 441.948 192.989C441.948 175.097 445.467 159.769 452.505 147.006C459.542 134.123 469.503 124.282 482.385 117.483C495.387 110.565 510.655 107.105 528.19 107.105C543.816 107.105 557.295 110.386 568.627 116.946C580.078 123.507 588.905 132.453 595.107 143.785C601.31 155.117 604.411 167.94 604.411 182.254ZM169.125 306.506C172.107 306.506 174.851 306.208 177.356 305.611C179.98 304.896 182.127 304.24 183.797 303.643C185.467 302.928 186.54 302.57 187.018 302.57C187.375 302.57 187.674 302.868 187.912 303.464C188.151 303.941 188.449 305.075 188.807 306.864L206.341 381.654C206.58 382.728 206.58 383.503 206.341 383.98C206.222 384.338 205.983 384.636 205.626 384.875C205.268 384.994 204.91 384.994 204.552 384.875C204.194 384.636 203.717 384.159 203.121 383.443C190.715 364.955 179.503 350.462 169.483 339.965C159.582 329.349 150.159 321.834 141.213 317.42C132.386 313.007 123.321 310.8 114.016 310.8H105.786V546.622C105.786 548.054 106.502 549.247 107.933 550.201C109.364 551.155 111.392 551.752 114.016 551.99L132.982 553.779C134.056 553.899 134.772 554.078 135.13 554.316C135.607 554.555 135.845 554.972 135.845 555.569C135.845 555.926 135.666 556.284 135.308 556.642C134.951 556.881 134.414 557 133.698 557H10.2404C9.5247 557 8.98792 556.881 8.63008 556.642C8.27223 556.284 8.0933 555.926 8.0933 555.569C8.0933 554.734 9.04756 554.137 10.9561 553.779L20.9758 551.99C23.7194 551.513 25.7472 550.857 27.0593 550.022C28.4907 549.187 29.2064 548.054 29.2064 546.622V316.884C29.2064 315.452 28.4907 314.319 27.0593 313.484C25.7472 312.649 23.7194 311.993 20.9758 311.516L10.9561 309.727C9.04756 309.369 8.0933 308.772 8.0933 307.937C8.0933 307.58 8.27223 307.281 8.63008 307.043C8.98792 306.685 9.5247 306.506 10.2404 306.506H169.125ZM89.3249 426.743H122.247C134.772 426.743 144.195 424.238 150.517 419.228C156.958 414.099 161.491 404.557 164.115 390.6C164.354 389.646 164.592 389.05 164.831 388.811C165.189 388.573 165.547 388.453 165.904 388.453C166.978 388.453 167.694 389.169 168.052 390.6L182.365 461.812C182.604 462.528 182.604 463.124 182.365 463.602C182.246 464.079 182.008 464.437 181.65 464.675C181.292 464.794 180.874 464.914 180.397 465.033C180.039 465.033 179.503 464.675 178.787 463.959C171.869 455.371 165.845 448.691 160.716 443.92C155.587 439.149 150.457 435.809 145.328 433.9C140.318 431.992 134.414 431.037 127.615 431.037H89.3249V426.743ZM301.923 421.733H333.056C344.507 421.733 353.096 419.228 358.821 414.218C364.547 409.089 368.722 399.547 371.346 385.591C371.584 384.636 371.823 384.04 372.062 383.801C372.419 383.563 372.777 383.443 373.135 383.443C374.209 383.443 374.924 384.159 375.282 385.591L396.753 456.802C396.992 457.518 396.992 458.115 396.753 458.592C396.634 459.069 396.395 459.427 396.037 459.665C395.68 459.784 395.262 459.904 394.785 460.023C394.427 460.023 393.89 459.665 393.175 458.95C386.137 450.123 379.875 443.323 374.388 438.552C368.901 433.781 363.354 430.501 357.748 428.711C352.141 426.922 345.7 426.027 338.424 426.027H301.923V421.733ZM215.324 307.937C215.324 307.58 215.503 307.281 215.861 307.043C216.219 306.685 216.755 306.506 217.471 306.506H384.586C387.568 306.506 390.312 306.208 392.817 305.611C395.322 304.896 397.409 304.24 399.079 303.643C400.868 302.928 402.002 302.57 402.479 302.57C402.836 302.57 403.135 302.868 403.373 303.464C403.612 303.941 403.91 305.075 404.268 306.864L421.802 381.654C422.041 382.728 422.041 383.503 421.802 383.98C421.683 384.338 421.445 384.636 421.087 384.875C420.729 384.994 420.371 384.994 420.013 384.875C419.655 384.636 419.178 384.159 418.582 383.443C407.369 368.175 397.469 355.83 388.88 346.406C380.292 336.864 372.479 329.528 365.441 324.398C358.404 319.15 351.724 315.572 345.402 313.663C339.08 311.755 332.579 310.8 325.899 310.8H313.017V543.76C313.017 546.742 313.792 549.008 315.343 550.559C316.893 551.99 319.1 552.706 321.963 552.706H328.762C336.277 552.706 344.328 550.32 352.917 545.549C361.624 540.658 371.584 531.712 382.797 518.71C394.01 505.708 407.131 486.862 422.16 462.17C422.757 461.454 423.234 460.977 423.592 460.739C423.95 460.5 424.307 460.5 424.665 460.739C425.023 460.858 425.262 461.156 425.381 461.633C425.62 462.111 425.62 462.886 425.381 463.959L404.268 556.642C403.91 558.431 403.612 559.565 403.373 560.042C403.135 560.638 402.836 560.936 402.479 560.936C402.002 560.936 400.868 560.578 399.079 559.863C397.409 559.266 395.322 558.61 392.817 557.895C390.312 557.298 387.568 557 384.586 557H217.471C216.755 557 216.219 556.881 215.861 556.642C215.503 556.284 215.324 555.926 215.324 555.569C215.324 554.734 216.278 554.137 218.187 553.779L228.206 551.99C230.95 551.513 232.978 550.857 234.29 550.022C235.721 549.187 236.437 548.054 236.437 546.622V316.884C236.437 315.452 235.721 314.319 234.29 313.484C232.978 312.649 230.95 311.993 228.206 311.516L218.187 309.727C216.278 309.369 215.324 308.772 215.324 307.937ZM590.452 436.584L585.8 445.172L627.49 314.021C628.444 310.92 629.398 308.892 630.353 307.937C631.426 306.983 632.858 306.506 634.647 306.506H716.236C716.833 306.506 717.31 306.685 717.668 307.043C718.025 307.281 718.204 307.58 718.204 307.937C718.204 308.415 717.966 308.772 717.489 309.011C717.131 309.25 716.475 309.488 715.521 309.727L705.68 311.516C702.936 311.993 700.908 313.305 699.596 315.452C698.403 317.48 697.926 320.224 698.165 323.683L713.731 541.613C713.97 545.549 714.566 548.113 715.521 549.306C716.475 550.499 718.503 551.394 721.604 551.99L731.445 553.779C732.399 553.899 733.055 554.078 733.413 554.316C733.89 554.555 734.129 554.972 734.129 555.569C734.129 555.926 733.95 556.284 733.592 556.642C733.234 556.881 732.757 557 732.16 557H618.723C618.007 557 617.47 556.881 617.112 556.642C616.754 556.284 616.575 555.926 616.575 555.569C616.575 554.972 616.754 554.555 617.112 554.316C617.589 554.078 618.365 553.899 619.438 553.779L629.1 551.99C632.201 551.394 634.289 550.38 635.362 548.948C636.555 547.517 637.032 544.952 636.794 541.255L622.301 336.923L626.058 332.271L558.962 544.117C558.127 546.742 557.292 548.352 556.457 548.948C555.741 549.545 555.085 549.843 554.489 549.843C554.131 549.843 553.713 549.724 553.236 549.485C552.759 549.127 552.282 548.531 551.805 547.696C551.328 546.861 550.791 545.668 550.195 544.117L474.51 336.923L477.73 330.482L462.164 523.899C461.687 530.46 464.072 536.304 469.321 541.434C474.689 546.443 481.547 550.201 489.897 552.706L493.476 553.779C494.311 554.018 494.847 554.256 495.086 554.495C495.324 554.734 495.444 555.091 495.444 555.569C495.444 555.926 495.324 556.284 495.086 556.642C494.847 556.881 494.43 557 493.833 557H426.916C426.319 557 425.902 556.881 425.663 556.642C425.305 556.284 425.127 555.926 425.127 555.569C425.127 554.972 425.365 554.555 425.842 554.316C426.319 554.078 426.796 553.899 427.274 553.779L430.673 552.706C437.472 550.559 443.496 546.921 448.745 541.791C454.112 536.662 457.094 530.46 457.691 523.183L472.184 346.048C473.138 334.955 473.138 326.605 472.184 320.999C471.229 315.393 468.903 312.232 465.206 311.516L455.544 309.727C454.47 309.488 453.695 309.25 453.218 309.011C452.86 308.772 452.681 308.415 452.681 307.937C452.681 306.983 453.397 306.506 454.828 306.506H539.101C540.413 306.506 541.547 306.924 542.501 307.759C543.574 308.594 544.529 310.085 545.364 312.232L590.452 436.584ZM785.801 461.097H872.043L872.759 465.391H784.728L785.801 461.097ZM806.02 555.569C806.02 555.926 805.841 556.284 805.483 556.642C805.245 556.881 804.827 557 804.231 557H735.524C734.927 557 734.51 556.881 734.271 556.642C733.913 556.284 733.734 555.926 733.734 555.569C733.734 554.972 733.973 554.555 734.45 554.316C734.927 554.078 735.404 553.899 735.882 553.779L739.46 552.527C744.47 550.738 749.659 546.921 755.026 541.076C760.513 535.231 764.808 526.941 767.909 516.205L818.366 338.176C820.274 331.377 820.453 325.949 818.902 321.894C817.471 317.838 815.145 314.498 811.924 311.874C810.016 310.323 808.584 309.429 807.63 309.19C806.676 308.832 806.199 308.415 806.199 307.937C806.199 307.341 806.378 306.983 806.736 306.864C807.093 306.625 807.63 306.506 808.346 306.506H904.249C904.965 306.506 905.502 306.625 905.86 306.864C906.217 306.983 906.396 307.341 906.396 307.937C906.396 308.415 905.979 308.892 905.144 309.369C904.309 309.846 902.818 310.562 900.671 311.516C899.12 312.232 898.047 313.365 897.45 314.916C896.973 316.347 897.331 319.031 898.524 322.967L967.588 544.117C968.423 546.622 969.557 548.65 970.988 550.201C972.539 551.632 974.268 552.646 976.177 553.243C977.25 553.6 977.966 553.958 978.324 554.316C978.801 554.555 979.04 554.972 979.04 555.569C979.04 555.926 978.861 556.284 978.503 556.642C978.145 556.881 977.608 557 976.893 557H874.19C873.474 557 872.938 556.881 872.58 556.642C872.222 556.284 872.043 555.926 872.043 555.569C872.043 554.972 872.222 554.614 872.58 554.495C873.057 554.376 873.832 554.137 874.906 553.779L880.989 551.99C884.448 550.917 886.476 549.604 887.073 548.054C887.669 546.384 887.43 543.76 886.357 540.181L822.302 335.492L828.028 320.104L772.024 517.279C770.354 523.124 770.593 528.372 772.74 533.024C774.887 537.557 778.346 541.493 783.118 544.833C788.008 548.054 793.734 550.678 800.294 552.706L803.873 553.779C804.708 554.018 805.245 554.256 805.483 554.495C805.841 554.734 806.02 555.091 806.02 555.569ZM1106.02 309.727L1096 311.516C1093.38 311.993 1091.35 312.649 1089.92 313.484C1088.49 314.319 1087.77 315.452 1087.77 316.884V544.833C1087.77 547.815 1088.55 549.903 1090.1 551.096C1091.65 552.169 1093.86 552.706 1096.72 552.706H1107.1C1112.94 552.706 1119.02 551.334 1125.35 548.591C1131.67 545.847 1138.29 540.897 1145.21 533.74C1152.24 526.464 1159.52 516.086 1167.04 502.607L1189.76 462.17C1190.12 461.454 1190.47 460.977 1190.83 460.739C1191.19 460.5 1191.55 460.5 1191.91 460.739C1192.5 460.858 1192.86 461.156 1192.98 461.633C1193.22 462.111 1193.22 462.886 1192.98 463.959L1175.45 556.642C1175.09 558.551 1174.79 559.744 1174.55 560.221C1174.31 560.698 1174.01 560.936 1173.66 560.936C1173.18 560.936 1172.05 560.578 1170.26 559.863C1168.59 559.266 1166.5 558.61 1163.99 557.895C1161.49 557.298 1158.75 557 1155.76 557H992.227C991.511 557 990.974 556.881 990.617 556.642C990.259 556.284 990.08 555.926 990.08 555.569C990.08 554.734 991.034 554.137 992.943 553.779L1002.96 551.99C1005.71 551.513 1007.73 550.857 1009.05 550.022C1010.48 549.187 1011.19 548.054 1011.19 546.622V316.884C1011.19 315.452 1010.48 314.319 1009.05 313.484C1007.73 312.649 1005.71 311.993 1002.96 311.516L992.943 309.727C991.034 309.369 990.08 308.772 990.08 307.937C990.08 307.58 990.259 307.281 990.617 307.043C990.974 306.685 991.511 306.506 992.227 306.506H1106.74C1107.45 306.506 1107.99 306.685 1108.35 307.043C1108.71 307.281 1108.89 307.58 1108.89 307.937C1108.89 308.772 1107.93 309.369 1106.02 309.727ZM1290.9 421.733H1322.03C1333.48 421.733 1342.07 419.228 1347.8 414.218C1353.52 409.089 1357.7 399.547 1360.32 385.591C1360.56 384.636 1360.8 384.04 1361.04 383.801C1361.4 383.563 1361.75 383.443 1362.11 383.443C1363.18 383.443 1363.9 384.159 1364.26 385.591L1385.73 456.802C1385.97 457.518 1385.97 458.115 1385.73 458.592C1385.61 459.069 1385.37 459.427 1385.01 459.665C1384.66 459.784 1384.24 459.904 1383.76 460.023C1383.4 460.023 1382.87 459.665 1382.15 458.95C1375.11 450.123 1368.85 443.323 1363.36 438.552C1357.88 433.781 1352.33 430.501 1346.72 428.711C1341.12 426.922 1334.68 426.027 1327.4 426.027H1290.9V421.733ZM1204.3 307.937C1204.3 307.58 1204.48 307.281 1204.84 307.043C1205.19 306.685 1205.73 306.506 1206.45 306.506H1373.56C1376.54 306.506 1379.29 306.208 1381.79 305.611C1384.3 304.896 1386.38 304.24 1388.05 303.643C1389.84 302.928 1390.98 302.57 1391.45 302.57C1391.81 302.57 1392.11 302.868 1392.35 303.464C1392.59 303.941 1392.89 305.075 1393.24 306.864L1410.78 381.654C1411.02 382.728 1411.02 383.503 1410.78 383.98C1410.66 384.338 1410.42 384.636 1410.06 384.875C1409.7 384.994 1409.35 384.994 1408.99 384.875C1408.63 384.636 1408.15 384.159 1407.56 383.443C1396.34 368.175 1386.44 355.83 1377.86 346.406C1369.27 336.864 1361.45 329.528 1354.42 324.398C1347.38 319.15 1340.7 315.572 1334.38 313.663C1328.06 311.755 1321.55 310.8 1314.87 310.8H1301.99V543.76C1301.99 546.742 1302.77 549.008 1304.32 550.559C1305.87 551.99 1308.08 552.706 1310.94 552.706H1317.74C1325.25 552.706 1333.3 550.32 1341.89 545.549C1350.6 540.658 1360.56 531.712 1371.77 518.71C1382.99 505.708 1396.11 486.862 1411.14 462.17C1411.73 461.454 1412.21 460.977 1412.57 460.739C1412.93 460.5 1413.28 460.5 1413.64 460.739C1414 460.858 1414.24 461.156 1414.36 461.633C1414.6 462.111 1414.6 462.886 1414.36 463.959L1393.24 556.642C1392.89 558.431 1392.59 559.565 1392.35 560.042C1392.11 560.638 1391.81 560.936 1391.45 560.936C1390.98 560.936 1389.84 560.578 1388.05 559.863C1386.38 559.266 1384.3 558.61 1381.79 557.895C1379.29 557.298 1376.54 557 1373.56 557H1206.45C1205.73 557 1205.19 556.881 1204.84 556.642C1204.48 556.284 1204.3 555.926 1204.3 555.569C1204.3 554.734 1205.25 554.137 1207.16 553.779L1217.18 551.99C1219.93 551.513 1221.95 550.857 1223.27 550.022C1224.7 549.187 1225.41 548.054 1225.41 546.622V316.884C1225.41 315.452 1224.7 314.319 1223.27 313.484C1221.95 312.649 1219.93 311.993 1217.18 311.516L1207.16 309.727C1205.25 309.369 1204.3 308.772 1204.3 307.937ZM1706.25 556.284C1706.25 558.074 1706.07 559.266 1705.71 559.863C1705.35 560.578 1704.7 560.936 1703.74 560.936C1701.83 560.936 1698.25 559.922 1693.01 557.895C1687.76 555.867 1681.85 553.481 1675.29 550.738C1668.73 547.994 1662.41 545.608 1656.33 543.581C1650.36 541.553 1645.65 540.539 1642.19 540.539C1640.76 540.539 1638.67 541.553 1635.93 543.581C1633.19 545.608 1629.73 547.935 1625.55 550.559C1621.5 553.183 1616.66 555.509 1611.06 557.537C1605.57 559.565 1599.25 560.578 1592.09 560.578C1575.87 560.578 1560.96 557.775 1547.36 552.169C1533.88 546.563 1522.13 538.511 1512.11 528.014C1502.21 517.517 1494.52 504.993 1489.03 490.44C1483.55 475.768 1480.8 459.427 1480.8 441.415C1480.8 420.898 1483.84 402.171 1489.93 385.233C1496.01 368.295 1504.78 353.682 1516.23 341.396C1527.68 329.11 1541.46 319.627 1557.56 312.947C1573.78 306.268 1591.97 302.928 1612.13 302.928C1620.24 302.928 1627.1 304.061 1632.71 306.327C1638.43 308.474 1642.97 310.681 1646.31 312.947C1649.77 315.094 1652.09 316.168 1653.28 316.168C1656.15 316.168 1660.08 315.094 1665.09 312.947C1670.1 310.681 1674.99 308.474 1679.77 306.327C1684.66 304.061 1688.23 302.928 1690.5 302.928C1690.86 302.928 1691.16 303.166 1691.4 303.643C1691.75 304.001 1692.05 305.194 1692.29 307.222L1705.53 395.968C1705.77 397.042 1705.77 397.817 1705.53 398.294C1705.41 398.652 1705.17 398.95 1704.81 399.189C1704.46 399.308 1704.1 399.308 1703.74 399.189C1703.38 398.95 1702.91 398.473 1702.31 397.757C1692.77 374.974 1683.05 356.963 1673.15 343.722C1663.24 330.363 1653.4 320.82 1643.62 315.094C1633.84 309.369 1624.18 306.506 1614.64 306.506C1603.07 306.506 1593.17 310.979 1584.94 319.925C1576.71 328.872 1570.38 342.47 1565.97 360.72C1561.68 378.851 1559.53 401.932 1559.53 429.964C1559.53 455.49 1562.21 477.2 1567.58 495.092C1572.95 512.985 1579.81 526.643 1588.16 536.066C1596.51 545.489 1605.09 550.201 1613.92 550.201C1616.9 550.201 1619.77 549.545 1622.51 548.233C1625.25 546.801 1627.7 544.952 1629.85 542.686C1631.99 540.3 1633.66 537.617 1634.86 534.634C1636.17 531.652 1636.82 528.611 1636.82 525.509V451.435C1636.82 450.003 1636.11 448.87 1634.68 448.035C1633.36 447.081 1631.34 446.425 1628.59 446.067L1614.99 444.278C1613.92 444.039 1613.15 443.801 1612.67 443.562C1612.31 443.323 1612.13 442.966 1612.13 442.488C1612.13 442.131 1612.31 441.832 1612.67 441.594C1613.03 441.236 1613.56 441.057 1614.28 441.057H1718.06C1718.77 441.057 1719.31 441.236 1719.67 441.594C1720.02 441.832 1720.2 442.131 1720.2 442.488C1720.2 442.966 1719.96 443.323 1719.49 443.562C1719.13 443.801 1718.41 444.039 1717.34 444.278L1710.9 446.067C1709.35 446.544 1708.15 447.2 1707.32 448.035C1706.6 448.87 1706.25 450.003 1706.25 451.435V556.284ZM1772.68 461.097H1858.92L1859.64 465.391H1771.61L1772.68 461.097ZM1792.9 555.569C1792.9 555.926 1792.72 556.284 1792.36 556.642C1792.12 556.881 1791.71 557 1791.11 557H1722.4C1721.81 557 1721.39 556.881 1721.15 556.642C1720.79 556.284 1720.61 555.926 1720.61 555.569C1720.61 554.972 1720.85 554.555 1721.33 554.316C1721.81 554.078 1722.28 553.899 1722.76 553.779L1726.34 552.527C1731.35 550.738 1736.54 546.921 1741.91 541.076C1747.39 535.231 1751.69 526.941 1754.79 516.205L1805.24 338.176C1807.15 331.377 1807.33 325.949 1805.78 321.894C1804.35 317.838 1802.02 314.498 1798.8 311.874C1796.89 310.323 1795.46 309.429 1794.51 309.19C1793.55 308.832 1793.08 308.415 1793.08 307.937C1793.08 307.341 1793.26 306.983 1793.61 306.864C1793.97 306.625 1794.51 306.506 1795.22 306.506H1891.13C1891.84 306.506 1892.38 306.625 1892.74 306.864C1893.1 306.983 1893.28 307.341 1893.28 307.937C1893.28 308.415 1892.86 308.892 1892.02 309.369C1891.19 309.846 1889.7 310.562 1887.55 311.516C1886 312.232 1884.93 313.365 1884.33 314.916C1883.85 316.347 1884.21 319.031 1885.4 322.967L1954.47 544.117C1955.3 546.622 1956.44 548.65 1957.87 550.201C1959.42 551.632 1961.15 552.646 1963.06 553.243C1964.13 553.6 1964.84 553.958 1965.2 554.316C1965.68 554.555 1965.92 554.972 1965.92 555.569C1965.92 555.926 1965.74 556.284 1965.38 556.642C1965.02 556.881 1964.49 557 1963.77 557H1861.07C1860.35 557 1859.82 556.881 1859.46 556.642C1859.1 556.284 1858.92 555.926 1858.92 555.569C1858.92 554.972 1859.1 554.614 1859.46 554.495C1859.94 554.376 1860.71 554.137 1861.78 553.779L1867.87 551.99C1871.33 550.917 1873.35 549.604 1873.95 548.054C1874.55 546.384 1874.31 543.76 1873.24 540.181L1809.18 335.492L1814.91 320.104L1758.9 517.279C1757.23 523.124 1757.47 528.372 1759.62 533.024C1761.77 537.557 1765.23 541.493 1770 544.833C1774.89 548.054 1780.61 550.678 1787.17 552.706L1790.75 553.779C1791.59 554.018 1792.12 554.256 1792.36 554.495C1792.72 554.734 1792.9 555.091 1792.9 555.569ZM2178.43 307.937L2048.53 555.926L2047.45 552.706H2090.75C2098.51 552.706 2105.37 551.752 2111.33 549.843C2117.41 547.935 2123.2 544.416 2128.69 539.287C2134.17 534.038 2139.96 526.643 2146.04 517.1C2152.13 507.438 2159.16 494.854 2167.16 479.347L2170.38 473.085C2170.73 472.369 2171.09 471.892 2171.45 471.653C2171.81 471.295 2172.22 471.236 2172.7 471.474C2173.18 471.593 2173.48 471.832 2173.6 472.19C2173.72 472.548 2173.72 473.025 2173.6 473.621L2163.58 556.642C2163.46 558.193 2163.28 559.266 2163.04 559.863C2162.8 560.578 2162.38 560.936 2161.79 560.936C2161.31 560.936 2160.18 560.578 2158.39 559.863C2156.72 559.266 2154.63 558.61 2152.13 557.895C2149.62 557.298 2146.88 557 2143.89 557H1966.94C1966.58 557 1966.28 556.94 1966.04 556.821C1965.92 556.583 1965.87 556.344 1965.87 556.105C1965.87 555.867 1965.92 555.628 1966.04 555.39C1966.16 555.151 1966.28 554.972 1966.4 554.853L2096.66 307.759L2097.2 310.8H2054.25C2044 310.8 2035.11 312.53 2027.59 315.989C2020.08 319.329 2012.86 325.412 2005.94 334.239C1999.03 343.066 1991.27 355.71 1982.68 372.171L1977.85 381.475C1977.38 382.31 1976.96 382.847 1976.6 383.086C1976.24 383.205 1975.89 383.205 1975.53 383.086C1975.17 382.966 1974.87 382.728 1974.63 382.37C1974.51 382.012 1974.51 381.535 1974.63 380.939L1985.01 306.864C1985.25 305.313 1985.49 304.24 1985.73 303.643C1985.96 302.928 1986.32 302.57 1986.8 302.57C1987.28 302.57 1988.35 302.928 1990.02 303.643C1991.81 304.24 1993.96 304.896 1996.46 305.611C1998.97 306.208 2001.71 306.506 2004.69 306.506H2178.07C2178.31 306.506 2178.49 306.566 2178.61 306.685C2178.73 306.685 2178.79 306.804 2178.79 307.043C2178.79 307.162 2178.79 307.281 2178.79 307.401C2178.79 307.52 2178.67 307.699 2178.43 307.937ZM2276.38 421.733H2307.51C2318.96 421.733 2327.55 419.228 2333.28 414.218C2339 409.089 2343.18 399.547 2345.8 385.591C2346.04 384.636 2346.28 384.04 2346.52 383.801C2346.88 383.563 2347.23 383.443 2347.59 383.443C2348.67 383.443 2349.38 384.159 2349.74 385.591L2371.21 456.802C2371.45 457.518 2371.45 458.115 2371.21 458.592C2371.09 459.069 2370.85 459.427 2370.49 459.665C2370.14 459.784 2369.72 459.904 2369.24 460.023C2368.88 460.023 2368.35 459.665 2367.63 458.95C2360.59 450.123 2354.33 443.323 2348.84 438.552C2343.36 433.781 2337.81 430.501 2332.2 428.711C2326.6 426.922 2320.16 426.027 2312.88 426.027H2276.38V421.733ZM2189.78 307.937C2189.78 307.58 2189.96 307.281 2190.32 307.043C2190.68 306.685 2191.21 306.506 2191.93 306.506H2359.04C2362.02 306.506 2364.77 306.208 2367.27 305.611C2369.78 304.896 2371.87 304.24 2373.54 303.643C2375.32 302.928 2376.46 302.57 2376.94 302.57C2377.29 302.57 2377.59 302.868 2377.83 303.464C2378.07 303.941 2378.37 305.075 2378.72 306.864L2396.26 381.654C2396.5 382.728 2396.5 383.503 2396.26 383.98C2396.14 384.338 2395.9 384.636 2395.54 384.875C2395.19 384.994 2394.83 384.994 2394.47 384.875C2394.11 384.636 2393.63 384.159 2393.04 383.443C2381.83 368.175 2371.93 355.83 2363.34 346.406C2354.75 336.864 2346.94 329.528 2339.9 324.398C2332.86 319.15 2326.18 315.572 2319.86 313.663C2313.54 311.755 2307.04 310.8 2300.36 310.8H2287.47V543.76C2287.47 546.742 2288.25 549.008 2289.8 550.559C2291.35 551.99 2293.56 552.706 2296.42 552.706H2303.22C2310.73 552.706 2318.78 550.32 2327.37 545.549C2336.08 540.658 2346.04 531.712 2357.25 518.71C2368.47 505.708 2381.59 486.862 2396.62 462.17C2397.21 461.454 2397.69 460.977 2398.05 460.739C2398.41 460.5 2398.76 460.5 2399.12 460.739C2399.48 460.858 2399.72 461.156 2399.84 461.633C2400.08 462.111 2400.08 462.886 2399.84 463.959L2378.72 556.642C2378.37 558.431 2378.07 559.565 2377.83 560.042C2377.59 560.638 2377.29 560.936 2376.94 560.936C2376.46 560.936 2375.32 560.578 2373.54 559.863C2371.87 559.266 2369.78 558.61 2367.27 557.895C2364.77 557.298 2362.02 557 2359.04 557H2191.93C2191.21 557 2190.68 556.881 2190.32 556.642C2189.96 556.284 2189.78 555.926 2189.78 555.569C2189.78 554.734 2190.73 554.137 2192.64 553.779L2202.66 551.99C2205.41 551.513 2207.43 550.857 2208.75 550.022C2210.18 549.187 2210.89 548.054 2210.89 546.622V316.884C2210.89 315.452 2210.18 314.319 2208.75 313.484C2207.43 312.649 2205.41 311.993 2202.66 311.516L2192.64 309.727C2190.73 309.369 2189.78 308.772 2189.78 307.937Z" fill="#E77365"/>
</svg>
