<svg width="321" height="93" viewBox="0 0 321 93" fill="none" xmlns="http://www.w3.org/2000/svg">
<path d="M18.02 58.78H47L47.24 60.34H17.66L18.02 58.78ZM24.86 90.46C24.86 90.62 24.8 90.76 24.68 90.88C24.56 90.96 24.4 91 24.2 91H1.22C0.98 91 0.82 90.96 0.74 90.88C0.62 90.76 0.56 90.62 0.56 90.46C0.56 90.26 0.64 90.12 0.8 90.04C0.96 89.96 1.12 89.9 1.28 89.86L2.48 89.38C4.16 88.78 5.9 87.52 7.7 85.6C9.5 83.64 10.92 80.86 11.96 77.26L28.88 17.68C29.52 15.4 29.58 13.58 29.06 12.22C28.58 10.86 27.8 9.73999 26.72 8.86C26.08 8.33999 25.6 8.04 25.28 7.96C24.96 7.84 24.8 7.7 24.8 7.54C24.8 7.3 24.86 7.15999 24.98 7.11999C25.1 7.03999 25.3 6.99999 25.58 6.99999H57.8C58.08 6.99999 58.28 7.03999 58.4 7.11999C58.52 7.15999 58.58 7.3 58.58 7.54C58.58 7.7 58.44 7.86 58.16 8.02C57.88 8.18 57.38 8.42 56.66 8.74C56.14 8.98 55.78 9.36 55.58 9.87999C55.42 10.4 55.54 11.32 55.94 12.64L78.98 86.5C79.26 87.38 79.66 88.08 80.18 88.6C80.7 89.08 81.28 89.42 81.92 89.62C82.28 89.78 82.52 89.92 82.64 90.04C82.8 90.12 82.88 90.26 82.88 90.46C82.88 90.62 82.82 90.76 82.7 90.88C82.58 90.96 82.38 91 82.1 91H47.72C47.44 91 47.24 90.96 47.12 90.88C47 90.76 46.94 90.62 46.94 90.46C46.94 90.26 47 90.14 47.12 90.1C47.28 90.06 47.54 89.98 47.9 89.86L49.94 89.2C51.1 88.84 51.78 88.4 51.98 87.88C52.18 87.32 52.1 86.44 51.74 85.24L30.32 16.72L32.24 11.62L13.46 77.62C12.9 79.58 12.98 81.34 13.7 82.9C14.42 84.42 15.58 85.72 17.18 86.8C18.78 87.88 20.68 88.76 22.88 89.44L24.08 89.86C24.36 89.94 24.56 90.02 24.68 90.1C24.8 90.18 24.86 90.3 24.86 90.46ZM109.557 1.29999V88.06L90.2366 91.84C89.9566 91.88 89.6766 91.92 89.3966 91.96C89.1566 92.04 88.9166 92.08 88.6766 92.08C88.4366 92.08 88.2166 92 88.0166 91.84C87.8566 91.72 87.7766 91.54 87.7766 91.3V9.16C87.7766 8.83999 87.6966 8.6 87.5366 8.44C87.3766 8.27999 87.1166 8.19999 86.7566 8.19999L84.4166 8.14C84.1366 8.14 83.9366 8.1 83.8166 8.02C83.7366 7.9 83.6966 7.76 83.6966 7.59999C83.6966 7.44 83.7566 7.32 83.8766 7.24C83.9966 7.12 84.1566 7.04 84.3566 6.99999L106.977 0.699993C107.457 0.579997 107.797 0.499998 107.997 0.459996C108.197 0.419994 108.417 0.399993 108.657 0.399993C108.977 0.399993 109.197 0.499993 109.317 0.699993C109.477 0.859996 109.557 1.06 109.557 1.29999ZM108.237 46.42L107.217 45.34C109.497 42.18 111.957 39.84 114.597 38.32C117.237 36.76 120.337 35.98 123.897 35.98C128.537 35.98 132.557 37.02 135.957 39.1C139.397 41.14 142.037 44.12 143.877 48.04C145.757 51.96 146.697 56.7 146.697 62.26C146.697 68.26 145.577 73.52 143.337 78.04C141.137 82.52 138.077 86 134.157 88.48C130.237 90.96 125.717 92.2 120.597 92.2C116.917 92.2 114.017 91.66 111.897 90.58C109.817 89.46 108.137 87.66 106.857 85.18L108.477 84.4C109.117 86.08 109.957 87.34 110.997 88.18C112.077 88.98 113.417 89.38 115.017 89.38C116.937 89.38 118.617 88.7 120.057 87.34C121.497 85.94 122.617 83.4 123.417 79.72C124.217 76.04 124.617 70.82 124.617 64.06C124.617 58.06 124.277 53.34 123.597 49.9C122.957 46.46 122.057 44 120.897 42.52C119.737 41.04 118.357 40.3 116.757 40.3C115.157 40.3 113.617 40.8 112.137 41.8C110.697 42.8 109.397 44.34 108.237 46.42ZM180.816 35.98C186.576 35.98 191.636 37.18 195.996 39.58C200.396 41.98 203.836 45.32 206.316 49.6C208.796 53.84 210.036 58.76 210.036 64.36C210.036 69.8 208.736 74.62 206.136 78.82C203.576 82.98 200.036 86.26 195.516 88.66C190.996 91.02 185.776 92.2 179.856 92.2C174.136 92.2 169.076 91.02 164.676 88.66C160.276 86.3 156.836 83.04 154.356 78.88C151.876 74.68 150.636 69.82 150.636 64.3C150.636 58.86 151.936 54.02 154.536 49.78C157.176 45.5 160.776 42.14 165.336 39.7C169.896 37.22 175.056 35.98 180.816 35.98ZM184.236 90.94C185.676 90.7 186.756 89.58 187.476 87.58C188.196 85.54 188.516 82.5 188.436 78.46C188.396 74.42 187.936 69.34 187.056 63.22C186.176 57.14 185.196 52.16 184.116 48.28C183.076 44.36 181.936 41.52 180.696 39.76C179.456 37.96 178.096 37.2 176.616 37.48C175.216 37.72 174.156 38.86 173.436 40.9C172.756 42.9 172.456 45.9 172.536 49.9C172.616 53.9 173.076 58.96 173.916 65.08C174.796 71.16 175.756 76.16 176.796 80.08C177.836 83.96 178.976 86.8 180.216 88.6C181.456 90.36 182.796 91.14 184.236 90.94ZM251.903 89.56V80.74L251.843 80.32V44.74C251.843 44.42 251.763 44.18 251.603 44.02C251.443 43.86 251.183 43.78 250.823 43.78L248.483 43.72C248.203 43.72 248.003 43.68 247.883 43.6C247.803 43.48 247.763 43.34 247.763 43.18C247.763 43.02 247.823 42.9 247.943 42.82C248.063 42.7 248.223 42.62 248.423 42.58L271.043 36.28C271.483 36.16 271.803 36.08 272.003 36.04C272.243 36 272.483 35.98 272.723 35.98C273.043 35.98 273.263 36.08 273.383 36.28C273.543 36.44 273.623 36.64 273.623 36.88V87.04C273.623 87.68 273.723 88.2 273.923 88.6C274.163 89 274.543 89.26 275.063 89.38L277.343 89.92C277.623 89.96 277.803 90.04 277.883 90.16C278.003 90.24 278.063 90.34 278.063 90.46C278.063 90.66 278.003 90.8 277.883 90.88C277.803 90.96 277.663 91 277.463 91H253.463C252.943 91 252.543 90.88 252.263 90.64C252.023 90.36 251.903 90 251.903 89.56ZM217.283 77.86V44.74C217.283 44.42 217.203 44.18 217.043 44.02C216.883 43.86 216.623 43.78 216.263 43.78L213.923 43.72C213.643 43.72 213.443 43.68 213.323 43.6C213.243 43.48 213.203 43.34 213.203 43.18C213.203 43.02 213.263 42.9 213.383 42.82C213.503 42.7 213.663 42.62 213.863 42.58L236.483 36.28C236.963 36.16 237.303 36.08 237.503 36.04C237.703 36 237.923 35.98 238.163 35.98C238.483 35.98 238.703 36.08 238.823 36.28C238.983 36.44 239.063 36.64 239.063 36.88V75.58C239.063 78.02 239.523 79.82 240.443 80.98C241.403 82.1 242.823 82.66 244.703 82.66C245.943 82.66 247.163 82.42 248.363 81.94C249.603 81.46 250.723 80.78 251.723 79.9L254.003 77.92L254.843 78.88L252.443 80.92C247.963 84.84 243.823 87.7 240.023 89.5C236.263 91.3 232.903 92.2 229.943 92.2C226.183 92.2 223.123 91.08 220.763 88.84C218.443 86.56 217.283 82.9 217.283 77.86ZM284.534 39.52L280.154 38.32C279.874 38.24 279.674 38.16 279.554 38.08C279.434 37.96 279.374 37.84 279.374 37.72C279.374 37.56 279.434 37.44 279.554 37.36C279.674 37.24 279.794 37.18 279.914 37.18H284.714C284.834 37.18 284.954 37.16 285.074 37.12C285.234 37.08 285.454 36.98 285.734 36.82L303.134 24.46C303.454 24.22 303.794 24.02 304.154 23.86C304.554 23.7 304.874 23.62 305.114 23.62C305.434 23.62 305.694 23.74 305.894 23.98C306.134 24.18 306.254 24.5 306.254 24.94V73.54C306.254 77.1 306.874 79.76 308.114 81.52C309.394 83.24 311.114 84.1 313.274 84.1C314.034 84.1 314.734 83.98 315.374 83.74C316.054 83.46 316.674 83.04 317.234 82.48C317.794 81.92 318.294 81.16 318.734 80.2C319.174 79.24 319.534 78.06 319.814 76.66C319.894 76.34 320.054 76.18 320.294 76.18C320.534 76.18 320.614 76.36 320.534 76.72C319.934 80.16 318.954 83.04 317.594 85.36C316.274 87.64 314.454 89.36 312.134 90.52C309.814 91.64 306.914 92.2 303.434 92.2C297.514 92.2 293.014 90.84 289.934 88.12C286.854 85.4 285.314 81.2 285.314 75.52V40.66C285.314 40.3 285.254 40.04 285.134 39.88C285.054 39.68 284.854 39.56 284.534 39.52ZM299.954 38.86L300.674 37.18H320.234C320.474 37.18 320.634 37.22 320.714 37.3C320.834 37.34 320.894 37.48 320.894 37.72C320.894 38 320.714 38.26 320.354 38.5C320.034 38.74 319.574 38.86 318.974 38.86H299.954Z" fill="#E77365"/>
</svg>
