<svg width="246" height="121" viewBox="0 0 246 121" fill="none" xmlns="http://www.w3.org/2000/svg">
<path d="M79.92 71.08C79.92 76.96 77.36 81.76 72.24 85.48C67.12 89.16 59.46 91 49.26 91H1.5C1.26 91 1.06 90.96 0.9 90.88C0.78 90.76 0.72 90.62 0.72 90.46C0.72 90.18 1.06 89.96 1.74 89.8L5.1 89.2C6.06 89 6.76 88.68 7.2 88.24C7.64 87.76 7.86 87.04 7.86 86.08V10.6C7.86 10.12 7.68 9.75999 7.32 9.52C7 9.24 6.26 9 5.1 8.79999L1.74 8.19999C1.06 8.04 0.72 7.82 0.72 7.54C0.72 7.38 0.78 7.25999 0.9 7.18C1.06 7.05999 1.26 6.99999 1.5 6.99999H34.8C43.44 6.99999 50.76 8.05999 56.76 10.18C62.76 12.26 67.32 15.14 70.44 18.82C73.56 22.5 75.12 26.72 75.12 31.48C75.12 35.64 73.9 39.24 71.46 42.28C69.06 45.28 65.66 47.6 61.26 49.24C56.86 50.84 51.66 51.64 45.66 51.64L49.74 51.16C55.58 51.16 60.78 52 65.34 53.68C69.9 55.36 73.46 57.7 76.02 60.7C78.62 63.7 79.92 67.16 79.92 71.08ZM39.78 52.54H31.2V51.04H39.78C42.74 51.04 45.18 50.44 47.1 49.24C49.02 48 50.44 46.08 51.36 43.48C52.28 40.84 52.74 37.44 52.74 33.28C52.74 28.24 51.88 23.88 50.16 20.2C48.44 16.48 46.18 13.6 43.38 11.56C40.58 9.51999 37.54 8.49999 34.26 8.49999H32.94V86.8C32.94 87.8 33.26 88.5 33.9 88.9C34.58 89.3 35.48 89.5 36.6 89.5H42.12C44.72 89.5 46.98 88.74 48.9 87.22C50.82 85.66 52.3 83.48 53.34 80.68C54.38 77.84 54.9 74.44 54.9 70.48C54.9 64.76 53.62 60.34 51.06 57.22C48.54 54.1 44.78 52.54 39.78 52.54ZM110.81 1.29999V87.04C110.81 87.68 110.91 88.2 111.11 88.6C111.35 89 111.73 89.26 112.25 89.38L114.53 89.92C114.81 89.96 114.99 90.04 115.07 90.16C115.19 90.24 115.25 90.34 115.25 90.46C115.25 90.66 115.19 90.8 115.07 90.88C114.99 90.96 114.85 91 114.65 91H85.2497C85.0897 91 84.9297 90.96 84.7697 90.88C84.6497 90.8 84.5897 90.66 84.5897 90.46C84.5897 90.34 84.6297 90.24 84.7097 90.16C84.8297 90.04 85.0497 89.96 85.3697 89.92L87.5897 89.38C88.1497 89.26 88.5297 89 88.7297 88.6C88.9297 88.2 89.0297 87.68 89.0297 87.04V9.16C89.0297 8.83999 88.9497 8.6 88.7897 8.44C88.6297 8.27999 88.3697 8.19999 88.0097 8.19999L85.6697 8.14C85.3897 8.14 85.1897 8.1 85.0697 8.02C84.9897 7.9 84.9497 7.76 84.9497 7.59999C84.9497 7.44 85.0097 7.32 85.1297 7.24C85.2497 7.12 85.4097 7.04 85.6097 6.99999L108.23 0.699993C108.71 0.579997 109.05 0.499998 109.25 0.459996C109.45 0.419994 109.67 0.399993 109.91 0.399993C110.23 0.399993 110.45 0.499993 110.57 0.699993C110.73 0.859996 110.81 1.06 110.81 1.29999ZM148.863 35.98C154.623 35.98 159.683 37.18 164.043 39.58C168.443 41.98 171.883 45.32 174.363 49.6C176.843 53.84 178.083 58.76 178.083 64.36C178.083 69.8 176.783 74.62 174.183 78.82C171.623 82.98 168.083 86.26 163.563 88.66C159.043 91.02 153.823 92.2 147.903 92.2C142.183 92.2 137.123 91.02 132.723 88.66C128.323 86.3 124.883 83.04 122.403 78.88C119.923 74.68 118.683 69.82 118.683 64.3C118.683 58.86 119.983 54.02 122.583 49.78C125.223 45.5 128.823 42.14 133.383 39.7C137.943 37.22 143.103 35.98 148.863 35.98ZM152.283 90.94C153.723 90.7 154.803 89.58 155.523 87.58C156.243 85.54 156.563 82.5 156.483 78.46C156.443 74.42 155.983 69.34 155.103 63.22C154.223 57.14 153.243 52.16 152.163 48.28C151.123 44.36 149.983 41.52 148.743 39.76C147.503 37.96 146.143 37.2 144.663 37.48C143.263 37.72 142.203 38.86 141.483 40.9C140.803 42.9 140.503 45.9 140.583 49.9C140.663 53.9 141.123 58.96 141.963 65.08C142.843 71.16 143.803 76.16 144.843 80.08C145.883 83.96 147.023 86.8 148.263 88.6C149.503 90.36 150.843 91.14 152.283 90.94ZM218.27 85.06C224.59 85.78 229.51 86.78 233.03 88.06C236.59 89.3 239.07 90.96 240.47 93.04C241.91 95.16 242.63 97.8 242.63 100.96C242.63 106.72 239.95 111.4 234.59 115C229.27 118.6 221.67 120.4 211.79 120.4C204.31 120.4 198.31 119.88 193.79 118.84C189.27 117.84 185.99 116.42 183.95 114.58C181.95 112.74 180.95 110.6 180.95 108.16C180.95 104.8 182.17 102.32 184.61 100.72C187.05 99.16 191.05 98.12 196.61 97.6V98.2C196.45 98.44 196.29 98.88 196.13 99.52C195.97 100.16 195.89 100.88 195.89 101.68C195.89 106.84 197.31 110.98 200.15 114.1C203.03 117.22 207.13 118.78 212.45 118.78C215.33 118.78 217.71 118.5 219.59 117.94C221.51 117.42 222.93 116.56 223.85 115.36C224.81 114.16 225.29 112.58 225.29 110.62C225.29 108.9 224.79 107.42 223.79 106.18C222.79 104.98 221.01 103.94 218.45 103.06C215.89 102.22 212.29 101.48 207.65 100.84C202.85 100.16 198.97 99.4 196.01 98.56C193.09 97.72 190.97 96.58 189.65 95.14C188.33 93.74 187.67 91.84 187.67 89.44C187.67 87.24 188.27 85.28 189.47 83.56C190.67 81.84 192.63 80.44 195.35 79.36C198.11 78.24 201.77 77.52 206.33 77.2L206.45 77.56C206.05 77.56 205.63 77.8 205.19 78.28C204.75 78.76 204.53 79.4 204.53 80.2C204.53 80.96 204.89 81.62 205.61 82.18C206.33 82.74 207.67 83.26 209.63 83.74C211.59 84.18 214.47 84.62 218.27 85.06ZM219.53 38.8L220.07 37.3C221.55 32.9 223.51 29.34 225.95 26.62C228.43 23.9 231.61 22.54 235.49 22.54C238.81 22.54 241.29 23.46 242.93 25.3C244.61 27.14 245.45 29.54 245.45 32.5C245.45 35.1 244.77 37.14 243.41 38.62C242.05 40.06 240.13 40.78 237.65 40.78C236.17 40.78 234.93 40.38 233.93 39.58C232.93 38.74 232.03 37.78 231.23 36.7C230.47 35.62 229.67 34.68 228.83 33.88C228.03 33.04 227.05 32.62 225.89 32.62C224.65 32.62 223.63 33.1 222.83 34.06C222.03 35.02 221.35 36.44 220.79 38.32L219.53 38.8ZM239.27 56.5C239.27 60.58 238.07 64.26 235.67 67.54C233.27 70.78 229.97 73.36 225.77 75.28C221.61 77.2 216.89 78.16 211.61 78.16C205.61 78.16 200.43 77.24 196.07 75.4C191.71 73.56 188.35 71.14 185.99 68.14C183.67 65.1 182.51 61.78 182.51 58.18C182.51 53.98 183.71 50.22 186.11 46.9C188.51 43.54 191.91 40.88 196.31 38.92C200.71 36.96 205.93 35.98 211.97 35.98C217.81 35.98 222.77 36.96 226.85 38.92C230.93 40.88 234.01 43.42 236.09 46.54C238.21 49.66 239.27 52.98 239.27 56.5ZM207.89 37.6C206.73 37.76 205.79 38.66 205.07 40.3C204.35 41.9 203.91 44.18 203.75 47.14C203.63 50.1 203.85 53.64 204.41 57.76C205.01 61.88 205.77 65.36 206.69 68.2C207.65 71 208.71 73.1 209.87 74.5C211.03 75.86 212.17 76.46 213.29 76.3C214.97 76.06 216.17 74.2 216.89 70.72C217.65 67.2 217.59 62.3 216.71 56.02C215.83 49.86 214.55 45.2 212.87 42.04C211.19 38.84 209.53 37.36 207.89 37.6Z" fill="#E77365"/>
</svg>
